{"title":"Anomalisa.2015.DVDScr.XVID.AC3.HQ.Hive-CM8","uid":13110750,"size":1291049231,"categoryP":"video","categoryS":"movies","magnet":"?xt=urn:btih:97563f8140fcbc1b2be01c496c1dc235e37e359e&amp;dn=Anomalisa.2015.DVDScr.XVID.AC3.HQ.Hive-CM8&amp;tr=udp%3A%2F%2Ftracker.leechers-paradise.org%3A6969&amp;tr=udp%3A%2F%2Fzer0day.ch%3A1337&amp;tr=udp%3A%2F%2Fopen.demonii.com%3A1337&amp;tr=udp%3A%2F%2Ftracker.coppersurfer.tk%3A6969&amp;tr=udp%3A%2F%2Fexodus.desync.com%3A6969","seeders":169,"leechers":27,"uploader":"SaM","files":4,"time":1451474932,"description":"Anomalisa.2015.DVDScr.XVID.AC3.HQ.Hive-CM8\r\n\r\nThx Hive\r\n\r\nCM8 Doing It Right The First Time\r\n\r\nSource: DVD-Screener Big THX m8\r\n\r\n\r\nNotes:\r\nDVDScreener 12\r\n\r\n\r\n\r\n\r\nEncode:\r\n\r\nquality was perfect on this.\r\nAll digital watermarks are removed.\r\nFixed brightness,contrast and rgb, and added sharpness.\r\n\r\ngot very nice\r\nenjoy\r\n\r\nps: i forgot to mention, plz support the producers and go to the cinema and watch them on a big screen too\r\nthx\r\n\r\nVideo: 720x288 @bitrate 1600 2pass\r\nAudio: English AC3 2.0 Stereo\r\nSample: yes included\r\n\r\n\r\n \nhttp://www.imdb.com/title/tt2401878/\r\n\r\n\r\n\r\nGeneral\r\nComplete name : Anomalisa.2015.DVDScr.XVID.AC3.HQ.Hive-CM8.avi\r\nFormat : AVI\r\nFormat/Info : Audio Video Interleave\r\nFile size : 1.19 GiB\r\nDuration : 1h 30mn\r\nOverall bit rate : 1 888 Kbps\r\nWriting application : Nandub v1.0rc2\r\nWriting library : Nandub build 1853/release\r\n\r\nVideo\r\nID : 0\r\nFormat : MPEG-4 Visual\r\nFormat profile : Advanced   \r\nFormat settings, BVOP : 2\r\nFormat settings, QPel : Yes\r\nFormat settings, GMC : No warppoints\r\nFormat settings, Matrix : Default (H.263)\r\nMuxing mode : Packed bitstream\r\nCodec ID : XVID\r\nCodec ID/Hint : XviD\r\nDuration : 1h 30mn\r\nBit rate : 1 623 Kbps\r\nWidth : 720 pixels\r\nHeight : 288 pixels\r\nDisplay aspect ratio : 2.500\r\nFrame rate : 23.976 fps\r\nColor space : YUV\r\nChroma subsampling : 4:2:0\r\nBit depth : 8 bits\r\nScan type : Progressive\r\nCompression mode : Lossy\r\nBits/(Pixel*Frame) : 0.326\r\nStream size : 1.02 GiB (86%)\r\nWriting library : XviD 1.2.1 (UTC 2008-12-04)\r\n\r\nAudio\r\nID : 1\r\nFormat : AC-3\r\nFormat/Info : Audio Coding 3\r\nMode extension : CM (complete main)\r\nFormat settings, Endianness : Big\r\nCodec ID : 2000\r\nDuration : 1h 30mn\r\nBit rate mode : Constant\r\nBit rate : 256 Kbps\r\nChannel(s) : 2 channels\r\nChannel positions : Front: L R\r\nSampling rate : 48.0 KHz\r\nBit depth : 16 bits\r\nCompression mode : Lossy\r\nDelay relative to video : 8ms\r\nStream size : 165 MiB (14%)\r\nAlignment : Split accross interleaves\r\nInterleave, duration : 42 ms (1.00 video frame)\r\nInterleave, preload duration : 500 ms\r\n\r\n\r\n\r\nScreens\r\n \nhttp://extraimago.com/image/FL8 \nhttp://extraimago.com/image/FLa \nhttp://extraimago.com/image/FLw \nhttp://extraimago.com/image/FL2 \nhttp://extraimago.com/image/FLN \nhttp://extraimago.com/image/FLT\r\n\r\nPlot\r\n\r\nA man crippled by the mundanity of his life experiences something out of the ordinary.\r\n\r\nCast\r\n\r\nDavid Thewlis ... Michael Stone (voice)\r\nJennifer Jason Leigh ... Lisa (voice)\r\nTom Noonan ... Everyone else (voice)","torrent":{"xt":"urn:btih:97563f8140fcbc1b2be01c496c1dc235e37e359e","amp;dn":"Anomalisa.2015.DVDScr.XVID.AC3.HQ.Hive-CM8","amp;tr":["udp%3A%2F%2Ftracker.leechers-paradise.org%3A6969","udp%3A%2F%2Fzer0day.ch%3A1337","udp%3A%2F%2Fopen.demonii.com%3A1337","udp%3A%2F%2Ftracker.coppersurfer.tk%3A6969","udp%3A%2F%2Fexodus.desync.com%3A6969"],"infoHash":"97563f8140fcbc1b2be01c496c1dc235e37e359e","infoHashBuffer":{"type":"Buffer","data":[151,86,63,129,64,252,188,27,43,224,28,73,108,29,194,53,227,126,53,158]},"announce":[],"urlList":[]}}